{"title":"The Man With The Iron Fists 2012 HDRip XviD AC3 - TODE","uid":7904819,"size":726040716,"categoryP":"video","categoryS":"movies","magnet":"?xt=urn:btih:a161bf1c338ed01ce1e2b2ab68983656c9f0a185&amp;dn=The+Man+With+The+Iron+Fists+2012+HDRip+XviD+AC3+-+TODE&amp;tr=udp%3A%2F%2Ftracker.openbittorrent.com%3A80&amp;tr=udp%3A%2F%2Fopen.demonii.com%3A1337&amp;tr=udp%3A%2F%2Ftracker.coppersurfer.tk%3A6969&amp;tr=udp%3A%2F%2Fexodus.desync.com%3A6969","seeders":1,"leechers":0,"uploader":"xxxlavalxxx","files":1,"time":1355067618,"description":"[b][url]http://www.imdb.com/title/tt1258972/[/url]\n\n\n[size=4]The Man with the Iron Fists[/size]\n\n\nPlot: On the hunt for a fabled treasure of gold, a band of warriors, assassins, and a rogue British soldier descend upon a village in feudal China, where a humble blacksmith looks to defend himself and his fellow villagers.\n \n\n\nDirector: \nRZA\n\n Writers: \nEli Roth (screenplay), RZA (screenplay)\n \nStars:\n Russell Crowe, Cung Le , Lucy Liu, Dave Bautista ,Rick Yune ,Daniel Wu\n\nGenres:\n Action \n\nCountry:\nUSA |Hong Kong [/b]\n\nFormat                                   : AVI\nFormat/Info                              : Audio Video Interleave\nFile size                                : 692 MiB\nDuration                                 : 1h 35mn\nOverall bit rate                         : 1 011 Kbps\nWriting application                      : Lavf54.32.100\n\nVideo\nID                                       : 0\nFormat                                   : MPEG-4 Visual\nFormat profile                           : Simple@L3\nFormat settings, BVOP                    : No\nFormat settings, QPel                    : No\nFormat settings, GMC                     : No warppoints\nFormat settings, Matrix                  : Default (H.263)\nCodec ID                                 : XVID\nCodec ID/Hint                            : XviD\nDuration                                 : 1h 35mn\nBit rate                                 : 904 Kbps\nWidth                                    : 640 pixels\nHeight                                   : 304 pixels\nDisplay aspect ratio                     : 2.118\nFrame rate                               : 23.976 fps\nColor space                              : YUV\nChroma subsampling                       : 4:2:0\nBit depth                                : 8 bits\nScan type                                : Progressive\nCompression mode                         : Lossy\nBits/(Pixel*Frame)                       : 0.194\nStream size                              : 619 MiB (89%)\nWriting library                          : XviD 64\n\nAudio\nID                                       : 1\nFormat                                   : AC-3\nFormat/Info                              : Audio Coding 3\nMode extension                           : CM (complete main)\nFormat settings, Endianness              : Big\nCodec ID                                 : 2000\nDuration                                 : 1h 35mn\nBit rate mode                            : Constant\nBit rate                                 : 96.0 Kbps\nChannel(s)                               : 2 channels\nChannel positions                        : Front: L R\nSampling rate                            : 48.0 KHz\nBit depth                                : 16 bits\nCompression mode                         : Lossy\nStream size                              : 65.7 MiB (9%)\nAlignment                                : Aligned on interleaves\nInterleave, duration                     : 32 ms (0.77 video frame)\n\n\n &lt;a href=&quot;\nhttp://www.shotpix.com/images/57217859245332550904.png&quot; rel=&quot;nofollow&quot; target=&quot;_NEW&quot;&gt;\nhttp://www.shotpix.com/images/57217859245332550904.png&lt;/a&gt; &lt;a href=&quot;\nhttp://www.shotpix.com/images/93322138644596432284.png&quot; rel=&quot;nofollow&quot; target=&quot;_NEW&quot;&gt;\nhttp://www.shotpix.com/images/93322138644596432284.png&lt;/a&gt; &lt;a href=&quot;\nhttp://www.shotpix.com/images/65241569275783132042.png&quot; rel=&quot;nofollow&quot; target=&quot;_NEW&quot;&gt;\nhttp://www.shotpix.com/images/65241569275783132042.png&lt;/a&gt;","torrent":{"xt":"urn:btih:a161bf1c338ed01ce1e2b2ab68983656c9f0a185","amp;dn":"The+Man+With+The+Iron+Fists+2012+HDRip+XviD+AC3+-+TODE","amp;tr":["udp%3A%2F%2Ftracker.openbittorrent.com%3A80","udp%3A%2F%2Fopen.demonii.com%3A1337","udp%3A%2F%2Ftracker.coppersurfer.tk%3A6969","udp%3A%2F%2Fexodus.desync.com%3A6969"],"infoHash":"a161bf1c338ed01ce1e2b2ab68983656c9f0a185","infoHashBuffer":{"type":"Buffer","data":[161,97,191,28,51,142,208,28,225,226,178,171,104,152,54,86,201,240,161,133]},"announce":[],"urlList":[]}}